<svg id="Flat" height="512" viewBox="0 0 512 512" width="512" xmlns="http://www.w3.org/2000/svg"><path d="m372.32007 104.87012-21.89014 18.75976-14.42993 12.37012h-160l-14.42993-12.37012-21.89014-18.75976a24.009 24.009 0 0 1 -1.34985-35.2002 155.92885 155.92885 0 0 1 110.26001-45.66992h14.81982a155.95327 155.95327 0 0 1 110.26 45.66992 24.00054 24.00054 0 0 1 -1.34984 35.2002z" fill="#c4d4e0"/><path d="m168 208h16a0 0 0 0 1 0 0v64a0 0 0 0 1 0 0h-16a32 32 0 0 1 -32-32 32 32 0 0 1 32-32z" fill="#f2c194"/><path d="m360 208h16a0 0 0 0 1 0 0v64a0 0 0 0 1 0 0h-16a32 32 0 0 1 -32-32 32 32 0 0 1 32-32z" fill="#f2c194" transform="matrix(-1 0 0 -1 704 480)"/><path d="m416 496h-320l17.34009-73.69995a80.81077 80.81077 0 0 1 78.65991-62.30005 23.97914 23.97914 0 0 0 22.62012-16 23.59674 23.59674 0 0 0 1.37988-8v-40h80v40a23.59674 23.59674 0 0 0 1.37988 8 23.99852 23.99852 0 0 0 22.62012 16 80.8065 80.8065 0 0 1 78.65991 62.30005z" fill="#f4ceaf"/><path d="m296 296v30.37012a87.8897 87.8897 0 0 1 -80 0v-30.37012z" fill="#f2c194"/><path d="m176 184h160a0 0 0 0 1 0 0v64.00008a79.99992 79.99992 0 0 1 -79.99992 79.99992h-.00016a79.99992 79.99992 0 0 1 -79.99992-79.99992v-64.00008a0 0 0 0 1 0 0z" fill="#f4ceaf"/><path d="m248 376v120h-152l17.34009-73.69995a80.80635 80.80635 0 0 1 75.41992-62.23c1.07007-.05005 2.15991-.07005 3.23999-.07005a23.89453 23.89453 0 0 0 14.47-4.85986 23.4262 23.4262 0 0 0 2.5-2.17017 23.88921 23.88921 0 0 0 5.65015-8.97h1.37985a31.99429 31.99429 0 0 1 31.97 30.7c.02.42991.03.8701.03 1.30003z" fill="#c4d4e0"/><path d="m248 382.15v113.85h-48v-93.28z" fill="#a6b2bc"/><path d="m416 496h-208v-88l40-17.14014.1499-.06982 15.8501-6.79004v-8c0-.42993.01-.87012.03-1.3a31.99429 31.99429 0 0 1 31.97-30.7h1.37988a24.00594 24.00594 0 0 0 22.62012 16c1.09009 0 2.16992.02 3.24.07007a80.79357 80.79357 0 0 1 75.41992 62.23z" fill="#c4d4e0"/><circle cx="240" cy="432" fill="#2f4054" r="8"/><circle cx="216" cy="232" fill="#2f4054" r="8"/><circle cx="296" cy="232" fill="#2f4054" r="8"/><circle cx="280" cy="432" fill="#2f4054" r="8"/><circle cx="240" cy="472" fill="#2f4054" r="8"/><circle cx="280" cy="472" fill="#2f4054" r="8"/><g fill="#a6b2bc"><path d="m152 456h16v40h-16z"/><path d="m344 456h16v40h-16z"/><path d="m248 376v14.78a86.77723 86.77723 0 0 1 -53.65991-25.13013l-5.58009-5.5798c1.07008-.05007 2.15992-.07007 3.24-.07007a23.89453 23.89453 0 0 0 14.47-4.85986 70.73334 70.73334 0 0 0 41.5 19.55986c.02.42988.03.87007.03 1.3z"/><path d="m323.24 360.07007-5.58008 5.57983a86.92885 86.92885 0 0 1 -61.65992 25.5q-3.93018 0-7.8501-.35986l15.8501-6.79004v-8c0-.42993.01-.87012.03-1.3a70.73334 70.73334 0 0 0 41.5-19.55981 23.87256 23.87256 0 0 0 14.47 4.85981c1.09009 0 2.16992.02 3.24.07007z"/><path d="m350.42993 123.62988-14.42993 12.37012h-160l-14.42993-12.37012 9.82983-2.96a295.32653 295.32653 0 0 1 43.28-9.5q9.03-1.27478 18.14014-1.99 11.54996-.92975 23.17996-.91988 4.36487 0 8.71.13013 8.02515.23986 16.02.90991 9.28491.78 18.51 2.1499 8.22 1.21509 16.36011 2.90991 12.61487 2.595 25 6.31006z"/><path d="m224.23926 129.94043a46.8913 46.8913 0 0 0 -34.17969-34.17969l3.88086-15.52148a62.85931 62.85931 0 0 1 45.82031 45.82031z"/><path d="m280 133.5h-16v-13.5a94.67593 94.67593 0 0 1 13.4873-48.69531l11.65235-19.4209 13.7207 8.23242-11.65235 19.41992a78.67316 78.67316 0 0 0 -11.208 40.46387z"/><path d="m312 139.5h-16v-11.5a43.239 43.239 0 0 1 27.3125-40.34082l17.7168-7.08691 5.9414 14.85546-17.71582 7.08692a27.31631 27.31631 0 0 0 -17.25488 25.48535z"/></g><path d="m239.76 126.06006-15.52 3.87988a46.8212 46.8212 0 0 0 -9.56006-18.77q9.03-1.27478 18.14014-1.99a62.55543 62.55543 0 0 1 6.93992 16.88012z" fill="#808393"/><path d="m280.73 109.30005a79.47781 79.47781 0 0 0 -.73 10.69995v13.5h-16v-13.5a95.48056 95.48056 0 0 1 .71-11.60986q8.02511.23986 16.02.90991z" fill="#808393"/><path d="m315.6001 114.35986a27.39415 27.39415 0 0 0 -3.6001 13.64014v11.5h-16v-11.5a43.43255 43.43255 0 0 1 3.24-16.55q8.22 1.215 16.3601 2.90986z" fill="#808393"/><path d="m232 216h-32a8 8 0 0 1 0-16h32a8 8 0 0 1 0 16z" fill="#2f4054"/><path d="m312 216h-32a8 8 0 0 1 0-16h32a8 8 0 0 1 0 16z" fill="#2f4054"/><path d="m256 256a7.97772 7.97772 0 0 1 -5.65723-2.34277l-8-8a8.00185 8.00185 0 0 1 -1.93261-8.1875l8-24a8.0005 8.0005 0 0 1 15.17968 5.06054l-6.43652 19.3086 4.50391 4.5039a8 8 0 0 1 -5.65723 13.65723z" fill="#f2c194"/><path d="m256 297.92188a41.8148 41.8148 0 0 1 -29.65723-12.26465 8.00053 8.00053 0 0 1 11.31446-11.31446 25.96815 25.96815 0 0 0 36.68554 0 8.00053 8.00053 0 0 1 11.31446 11.31446 41.8148 41.8148 0 0 1 -29.65723 12.26465z" fill="#f2c194"/><path d="m336 184h-160v-48h.00008a278.40784 278.40784 0 0 1 159.99984 0h.00008z" fill="#c4d4e0"/></svg>